<?xml version="1.0" encoding="UTF-8"?>
<svg version="1.1" xmlns="http://www.w3.org/2000/svg" width="500" height="500">
<path d="M0 0 C6.28882156 0.81228151 8.62369318 1.5219186 13 6 C15.68896482 10.48160803 15.62282132 15.88823633 16 21 C16.825 20.195625 17.65 19.39125 18.5 18.5625 C22.10726737 15.58332154 25.34216893 14.68528168 30 15 C34.58725527 16.42881722 37.60637486 17.74466641 40 22 C41.17942085 25.53826255 41.11289189 28.34148726 41.09765625 32.07421875 C41.0962413 32.7580513 41.09482635 33.44188385 41.09336853 34.1464386 C41.08777876 36.32683722 41.07522822 38.50713251 41.0625 40.6875 C41.05748367 42.16731622 41.052921 43.64713406 41.04882812 45.12695312 C41.03781271 48.75133557 41.02055512 52.3756577 41 56 C35.72309964 55.38611852 32.82616625 54.82616625 29 51 C27.05901041 47.85328931 26.72065045 45.3531063 26.62109375 41.68359375 C26.56985352 40.16668945 26.56985352 40.16668945 26.51757812 38.61914062 C26.49115234 37.56919922 26.46472656 36.51925781 26.4375 35.4375 C26.3775714 33.35274963 26.3139367 31.26810157 26.24609375 29.18359375 C26.22216553 28.26118896 26.1982373 27.33878418 26.17358398 26.38842773 C26.08800978 23.85297977 26.08800978 23.85297977 25 21 C22.08369887 20.94250443 22.08369887 20.94250443 19 22 C15.01441042 28.46718309 15.44838776 35.53355828 15.3125 42.9375 C15.27833984 44.19369141 15.24417969 45.44988281 15.20898438 46.74414062 C15.12686886 49.82933786 15.05759701 52.91426384 15 56 C8.34296551 56.15448575 8.34296551 56.15448575 5.25 53.4375 C4.39148438 52.72400391 4.39148438 52.72400391 3.515625 51.99609375 C-0.68690561 46.46131761 -0.27084327 39.52801485 -0.1953125 32.91015625 C-0.1924826 31.96563095 -0.18965271 31.02110565 -0.18673706 30.04795837 C-0.17560684 27.05267276 -0.1505156 24.05769414 -0.125 21.0625 C-0.11496095 19.0227908 -0.10583672 16.98307688 -0.09765625 14.94335938 C-0.07569096 9.9621226 -0.04121076 4.98111322 0 0 Z " fill="#E6E6E6" transform="translate(98,218)"/>
<path d="M0 0 C9.29871767 2.10124397 9.29871767 2.10124397 13 7 C14.87555164 12.34532217 15.39402251 17.34094833 15.625 22.9375 C15.74875 25.598125 15.8725 28.25875 16 31 C21.28 26.05 26.56 21.1 32 16 C32.99 16.33 33.98 16.66 35 17 C31.66666667 20.33333333 28.33333333 23.66666667 25 27 C25.38333496 27.70084717 25.76666992 28.40169434 26.16162109 29.1237793 C27.90230721 32.31011552 29.63869287 35.49877561 31.375 38.6875 C31.97828125 39.79029297 32.5815625 40.89308594 33.203125 42.02929688 C33.78320312 43.09599609 34.36328125 44.16269531 34.9609375 45.26171875 C35.76217041 46.73064575 35.76217041 46.73064575 36.57958984 48.22924805 C37.88644189 50.77848557 38.98710347 53.32244861 40 56 C38.10489301 56.08160748 36.20875496 56.13946459 34.3125 56.1875 C32.72888672 56.23970703 32.72888672 56.23970703 31.11328125 56.29296875 C27.53446096 55.95619143 25.83696578 55.17932735 23 53 C21.234375 50.80859375 21.234375 50.80859375 19.75 48.4375 C19.24984375 47.65246094 18.7496875 46.86742187 18.234375 46.05859375 C17 44 17 44 16 42 C15.67 46.62 15.34 51.24 15 56 C8.80027483 56 7.51113892 55.8094062 3 52 C-0.614546 46.58536856 -0.39253242 41.62242241 -0.29296875 35.3515625 C-0.28872391 34.33903412 -0.28447906 33.32650574 -0.28010559 32.28329468 C-0.26337302 29.06358752 -0.22573026 25.84451656 -0.1875 22.625 C-0.17244618 20.43620698 -0.158759 18.24740411 -0.14648438 16.05859375 C-0.11348732 10.70551374 -0.06334196 5.35280234 0 0 Z " fill="#E6E6E6" transform="translate(397,218)"/>
<path d="M0 0 C2.75757245 1.62131971 3.84189174 2.97741869 4.80859375 6.015625 C4.84984375 6.758125 4.89109375 7.500625 4.93359375 8.265625 C4.08796875 7.440625 3.24234375 6.615625 2.37109375 5.765625 C-0.26580842 3.57237224 -1.15846277 3.25158248 -4.75390625 2.703125 C-8.03049494 2.94731263 -8.03049494 2.94731263 -9.73046875 4.81640625 C-11.54330436 8.1399382 -11.63145599 11.31412854 -11.75390625 15.015625 C-11.78806641 15.71300781 -11.82222656 16.41039062 -11.85742188 17.12890625 C-11.9394892 18.84059608 -12.00463544 20.5530826 -12.06640625 22.265625 C-8.43640625 22.265625 -4.80640625 22.265625 -1.06640625 22.265625 C-1.06640625 22.925625 -1.06640625 23.585625 -1.06640625 24.265625 C-4.69640625 24.265625 -8.32640625 24.265625 -12.06640625 24.265625 C-12.06640625 36.805625 -12.06640625 49.345625 -12.06640625 62.265625 C-19.50390625 62.265625 -19.50390625 62.265625 -23.06640625 59.265625 C-27.78035188 52.08246975 -27.54741248 45.6795826 -27.31640625 37.265625 C-27.29835937 36.01394531 -27.2803125 34.76226562 -27.26171875 33.47265625 C-27.21485137 30.40284258 -27.14924935 27.33464326 -27.06640625 24.265625 C-29.04640625 24.265625 -31.02640625 24.265625 -33.06640625 24.265625 C-33.06640625 23.605625 -33.06640625 22.945625 -33.06640625 22.265625 C-31.08640625 22.265625 -29.10640625 22.265625 -27.06640625 22.265625 C-27.040625 21.6365625 -27.01484375 21.0075 -26.98828125 20.359375 C-26.53051381 13.45124815 -25.51171046 7.67772146 -20.4453125 2.66015625 C-14.54228148 -1.72109546 -6.92295652 -2.46033237 0 0 Z " fill="#DFDFDF" transform="translate(282.06640625,211.734375)"/>
<path d="M0 0 C4.6258311 6.80733099 3.61197758 15.68500656 3.5 23.5234375 C3.49097656 24.72742188 3.48195312 25.93140625 3.47265625 27.171875 C3.44923775 30.1226054 3.41643993 33.07291439 3.375 36.0234375 C-3.21918658 36.19677682 -3.21918658 36.19677682 -6.4375 33.2109375 C-7.02144531 32.68886719 -7.60539062 32.16679687 -8.20703125 31.62890625 C-9.625 30.0234375 -9.625 30.0234375 -10.625 27.0234375 C-11.10710937 27.58933594 -11.58921875 28.15523438 -12.0859375 28.73828125 C-12.71757812 29.47175781 -13.34921875 30.20523438 -14 30.9609375 C-14.62648437 31.69183594 -15.25296875 32.42273438 -15.8984375 33.17578125 C-18.10109863 35.53292766 -19.0809217 35.97505736 -22.3046875 36.26171875 C-23.35914063 36.28621094 -24.41359375 36.31070313 -25.5 36.3359375 C-27.07394531 36.39201172 -27.07394531 36.39201172 -28.6796875 36.44921875 C-32.30478603 35.92516604 -33.39006426 34.85748189 -35.625 32.0234375 C-36.9877306 28.66203535 -36.63505897 27.06099099 -35.6875 23.5234375 C-33.25744406 18.45345716 -28.6629646 16.11369769 -23.53515625 14.2734375 C-19.53174388 13.16692813 -15.76092624 12.81664119 -11.625 13.0234375 C-11.76423628 5.86114757 -11.76423628 5.86114757 -14.1875 -0.7265625 C-17.14820635 -2.24487345 -19.40411678 -2.24145659 -22.6640625 -1.671875 C-25.74031589 -0.58109193 -27.4846812 1.63851083 -29.625 4.0234375 C-30.615 4.0234375 -31.605 4.0234375 -32.625 4.0234375 C-29.88819136 -0.71334668 -27.78134526 -3.05557113 -22.625 -4.9765625 C-14.22336944 -7.07697014 -6.61973225 -5.505835 0 0 Z M-20.625 19.0234375 C-22.13162097 22.03667945 -21.80270373 24.70630127 -21.625 28.0234375 C-20.965 28.6834375 -20.305 29.3434375 -19.625 30.0234375 C-17.10750172 30.17112663 -17.10750172 30.17112663 -14.625 29.0234375 C-11.31564536 24.34469474 -11.34038089 20.52607371 -11.625 15.0234375 C-16.32569146 15.0234375 -17.26848653 15.93907377 -20.625 19.0234375 Z " fill="#E9E9E9" transform="translate(176.625,237.9765625)"/>
<path d="M0 0 C4.64442801 5.8387095 5.13366137 11.00040298 5.09765625 18.2734375 C5.09443359 19.42714844 5.09121094 20.58085937 5.08789062 21.76953125 C5.07532227 23.55423828 5.07532227 23.55423828 5.0625 25.375 C5.05798828 26.58800781 5.05347656 27.80101562 5.04882812 29.05078125 C5.03708354 32.03390507 5.0206584 35.01692679 5 38 C-1.59418658 38.17333932 -1.59418658 38.17333932 -4.8125 35.1875 C-5.39644531 34.66542969 -5.98039062 34.14335937 -6.58203125 33.60546875 C-8 32 -8 32 -9 29 C-9.47050781 29.56589844 -9.94101562 30.13179688 -10.42578125 30.71484375 C-11.35970703 31.81505859 -11.35970703 31.81505859 -12.3125 32.9375 C-12.92738281 33.66839844 -13.54226563 34.39929688 -14.17578125 35.15234375 C-17.21006257 38.22560941 -20.30934598 38.20607541 -24.4375 38.3125 C-29.59422918 38.25119146 -29.59422918 38.25119146 -32.625 36.375 C-34.34429179 33.40531418 -34.93109246 31.44537693 -35 28 C-33.4224652 22.84671964 -30.69374321 20.60883787 -26.18359375 18.03515625 C-20.95766414 15.55774776 -15.7913633 14.71043184 -10 15 C-10.13923628 7.83771007 -10.13923628 7.83771007 -12.5625 1.25 C-15.52320635 -0.26831095 -17.77911678 -0.26489409 -21.0390625 0.3046875 C-24.11531589 1.39547057 -25.8596812 3.61507333 -28 6 C-28.99 6 -29.98 6 -31 6 C-28.26319136 1.26321582 -26.15634526 -1.07900863 -21 -3 C-14.00755534 -4.74811116 -6.24408076 -3.73316318 0 0 Z M-18.875 20.75 C-20.47314633 23.94629267 -20.32564832 26.48299818 -20 30 C-19.34 30.66 -18.68 31.32 -18 32 C-15.48250172 32.14768913 -15.48250172 32.14768913 -13 31 C-9.52150998 26.20208273 -9.65981404 21.66976598 -10 16 C-13.27545511 16 -16.59311208 18.62023794 -18.875 20.75 Z " fill="#E5E5E5" transform="translate(314,236)"/>
<path d="M0 0 C6.2476563 7.22385259 5.36206352 15.16940336 5.1875 24.25 C5.17242992 25.61521966 5.15874561 26.98045535 5.14648438 28.34570312 C5.11126164 31.66838096 5.06200041 34.99023181 5 38.3125 C0.73846539 38.5267671 -0.61872511 38.57645954 -4.25 36.0625 C-6.53740361 33.77509639 -7.89656577 32.29177241 -9 29.3125 C-9.556875 30.240625 -10.11375 31.16875 -10.6875 32.125 C-13.11831118 35.47557757 -14.16967773 36.84556807 -18 38.3125 C-23.37744328 39.04246968 -27.51188142 39.24622146 -32.1875 36.3125 C-34.50680016 32.47365836 -35.0754589 29.68544032 -34 25.3125 C-30.01428032 19.65534948 -22.7368091 16.53072949 -16 15.3125 C-13.69 15.3125 -11.38 15.3125 -9 15.3125 C-9.66 10.6925 -10.32 6.0725 -11 1.3125 C-18.88664964 -0.01314106 -18.88664964 -0.01314106 -26 3.3125 C-27.85315257 5.36196399 -27.85315257 5.36196399 -29 7.3125 C-29.66 6.9825 -30.32 6.6525 -31 6.3125 C-28.26319136 1.57571582 -26.15634526 -0.76650863 -21 -2.6875 C-13.92775532 -4.49022904 -6.3670108 -3.58144357 0 0 Z M-13.9375 18.0625 C-14.64777344 18.38734375 -15.35804688 18.7121875 -16.08984375 19.046875 C-18.40107998 20.57824624 -19.10047335 21.70630387 -20 24.3125 C-19.68873287 27.99453915 -19.68873287 27.99453915 -19 31.3125 C-17.35 31.6425 -15.7 31.9725 -14 32.3125 C-9.82167521 27.19068251 -9.25786427 22.83646607 -9 16.3125 C-10.80371386 16.3125 -12.33006323 17.30674311 -13.9375 18.0625 Z " fill="#EAEAEA" transform="translate(244,235.6875)"/>
<path d="M0 0 C5.92520911 1.31603928 9.02154248 2.05706794 13 7 C13.95162372 9.85487115 14.12163139 11.60454317 14.11352539 14.56323242 C14.11344986 15.48396042 14.11337433 16.40468842 14.11329651 17.35331726 C14.10813522 18.34402725 14.10297394 19.33473724 14.09765625 20.35546875 C14.0962413 21.37224197 14.09482635 22.3890152 14.09336853 23.43659973 C14.08776707 26.68692964 14.07521432 29.93719088 14.0625 33.1875 C14.05748519 35.38997296 14.05292225 37.59244701 14.04882812 39.79492188 C14.03779717 45.19663804 14.02105762 50.59831412 14 56 C8.73661848 55.38150628 5.77384338 54.88166747 2 51 C-0.76917609 46.12117586 -0.25257524 40.88775485 -0.1953125 35.44921875 C-0.1924826 34.43527542 -0.18965271 33.42133209 -0.18673706 32.37666321 C-0.17556625 29.14682073 -0.15046711 25.91725829 -0.125 22.6875 C-0.1149662 20.49414464 -0.10584105 18.30078492 -0.09765625 16.10742188 C-0.07563707 10.73818614 -0.04219023 5.36911308 0 0 Z " fill="#F0F0F0" transform="translate(322,218)"/>
<path d="M0 0 C3.68044034 4.12927453 5.5625 8.31425697 5.5625 13.875 C4.9025 13.875 4.2425 13.875 3.5625 13.875 C3.40394531 13.27171875 3.24539063 12.6684375 3.08203125 12.046875 C1.95921975 8.20078034 1.00265322 5.39060806 -1.625 2.3125 C-5.34224803 0.41257323 -8.34796939 -0.099878 -12.4375 0.875 C-15.65704645 3.40953657 -17.14182435 4.98797305 -18.4375 8.875 C-18.58453064 11.30948818 -18.65855339 13.7487477 -18.6875 16.1875 C-18.71328125 17.48300781 -18.7390625 18.77851563 -18.765625 20.11328125 C-18.34969508 24.88162068 -16.95081017 28.19354426 -13.75 31.75 C-10.32400768 33.41669897 -7.1238399 33.51259756 -3.4375 32.875 C-0.38181485 31.28072949 1.11630512 30.09911579 2.30859375 26.828125 C2.81353465 24.864079 3.19681029 22.86967116 3.5625 20.875 C4.2225 20.875 4.8825 20.875 5.5625 20.875 C5.35053405 26.91602958 4.28508153 29.94772479 0.23046875 34.4296875 C-4.68954542 38.69293163 -9.66642121 38.29445886 -15.953125 38.18359375 C-22.31594288 37.62007064 -26.33633783 35.26724513 -30.8125 30.8125 C-34.70318822 25.85878221 -35.77496114 19.80304764 -35.2421875 13.6015625 C-33.94876083 7.46366502 -31.34256723 3.21975334 -26.25 -0.375 C-17.8660231 -4.62050319 -8.00668079 -5.84646245 0 0 Z " fill="#E7E7E7" transform="translate(390.4375,236.125)"/>
<path d="M0 0 C3.00869381 3.76086726 3.10368724 5.730387 3 10.5 C2.731875 9.943125 2.46375 9.38625 2.1875 8.8125 C1.795625 8.049375 1.40375 7.28625 1 6.5 C0.5875 5.654375 0.175 4.80875 -0.25 3.9375 C-2.59873696 0.66604495 -4.14291193 -0.26022169 -8 -1.5 C-11.71250899 -1.44374986 -15.32930271 -1.04211366 -19 -0.5 C-19 1.81 -19 4.12 -19 6.5 C-18.46632813 6.67015625 -17.93265625 6.8403125 -17.3828125 7.015625 C-14.91299507 7.81895662 -12.45691021 8.65804554 -10 9.5 C-9.13761719 9.7784375 -8.27523437 10.056875 -7.38671875 10.34375 C-1.47163964 12.42614507 2.94769071 14.82461242 6 20.5 C6.77847489 24.9373069 6.38101598 26.81679892 4.1875 30.75 C-0.16494845 36.22164948 -0.16494845 36.22164948 -4 37.5 C-11.41108734 38.1609303 -17.03831366 38.19324244 -23 33.5 C-25.75967595 30.00441046 -26.48972699 26.88834787 -27 22.5 C-26.34 22.5 -25.68 22.5 -25 22.5 C-24.8040625 23.10328125 -24.608125 23.7065625 -24.40625 24.328125 C-22.79168004 28.64292403 -21.43282532 31.80577497 -17.3125 34.125 C-12.801278 35.99550668 -8.67627183 35.63511163 -4 34.5 C-3.01 34.005 -3.01 34.005 -2 33.5 C-2 31.52 -2 29.54 -2 27.5 C-2.60585937 27.32984375 -3.21171875 27.1596875 -3.8359375 26.984375 C-22.277287 21.6505693 -22.277287 21.6505693 -26 15.5 C-27.53597454 12.42805092 -27.2265038 9.89755707 -27 6.5 C-25.1776037 1.3365438 -22.81661172 -0.95002909 -18 -3.5 C-11.53354257 -5.51178676 -5.14948891 -4.29124076 0 0 Z " fill="#E6E6E6" transform="translate(91,236.5)"/>
<path d="M0 0 C0 0.66 0 1.32 0 2 C-0.60328125 2.14695313 -1.2065625 2.29390625 -1.828125 2.4453125 C-6.13719561 3.65463232 -8.49696763 4.42151277 -11.5 7.875 C-13.74145425 12.54469635 -14.13194303 16.81841303 -14.31640625 21.95703125 C-14.35830078 23.06884766 -14.40019531 24.18066406 -14.44335938 25.32617188 C-14.48267578 26.47666016 -14.52199219 27.62714844 -14.5625 28.8125 C-14.60568359 29.98232422 -14.64886719 31.15214844 -14.69335938 32.35742188 C-14.79918279 35.23817031 -14.90126825 38.11900123 -15 41 C-21.44287383 41.29077103 -21.44287383 41.29077103 -23.9609375 39.9765625 C-28.95815717 35.20021442 -28.95815717 35.20021442 -29.11352539 30.74365234 C-29.11336691 29.35773731 -29.10770937 27.97181608 -29.09765625 26.5859375 C-29.0962413 25.85629791 -29.09482635 25.12665833 -29.09336853 24.37490845 C-29.08776531 22.04156415 -29.07521235 19.70831536 -29.0625 17.375 C-29.05748541 15.79427222 -29.05292243 14.21354293 -29.04882812 12.6328125 C-29.03779484 8.75517146 -29.02052811 4.87760193 -29 1 C-22.73258527 1.797811 -20.43762729 2.6680305 -16 7 C-15.67 7.66 -15.34 8.32 -15 9 C-14.484375 8.071875 -13.96875 7.14375 -13.4375 6.1875 C-10.20485004 1.32126892 -5.68223012 0 0 0 Z " fill="#EEEEEE" transform="translate(212,233)"/>
<path d="M0 0 C5.04484156 0.61123507 8.33571948 1.31119682 11.9140625 5.21484375 C14.0328044 9.3629272 14.14739578 12.86485017 14.109375 17.484375 C14.1065451 18.16537766 14.10371521 18.84638031 14.10079956 19.54801941 C14.08966775 21.7079783 14.06457707 23.86751169 14.0390625 26.02734375 C14.02902361 27.49804086 14.01989935 28.96874451 14.01171875 30.43945312 C13.98975163 34.03138661 13.9552707 37.6230736 13.9140625 41.21484375 C8.63716214 40.60096227 5.74022875 40.04101 1.9140625 36.21484375 C-0.02659919 33.07103978 -0.35495513 30.6006338 -0.4296875 26.93359375 C-0.47416016 25.42345703 -0.47416016 25.42345703 -0.51953125 23.8828125 C-0.56380208 21.77083333 -0.60807292 19.65885417 -0.65234375 17.546875 C-0.69681641 16.03673828 -0.69681641 16.03673828 -0.7421875 14.49609375 C-0.76087891 13.57892578 -0.77957031 12.66175781 -0.79882812 11.71679688 C-1.23097692 7.95092885 -2.42553422 5.87524703 -5.0859375 3.21484375 C-3.43718566 1.19328496 -2.64932623 0.27287068 0 0 Z " fill="#EDEDED" transform="translate(125.0859375,232.78515625)"/>
<path d="M0 0 C5.46043052 0.69399326 8.01957039 2.1100347 12 6 C14.38296427 9.56190448 14.23100832 12.74101766 14.1953125 16.953125 C14.1924826 17.61334656 14.18965271 18.27356812 14.18673706 18.95379639 C14.17558415 21.05271897 14.15048946 23.15120742 14.125 25.25 C14.11496384 26.67707715 14.1058391 28.10416102 14.09765625 29.53125 C14.07566111 33.02097328 14.04116536 36.51044423 14 40 C7.7375064 39.19874124 5.39557191 38.39557191 1 34 C-0.17942085 30.46173745 -0.11289189 27.65851274 -0.09765625 23.92578125 C-0.0962413 23.2419487 -0.09482635 22.55811615 -0.09336853 21.8535614 C-0.08777876 19.67316278 -0.07522822 17.49286749 -0.0625 15.3125 C-0.05748367 13.83268378 -0.052921 12.35286594 -0.04882812 10.87304688 C-0.03781271 7.24866443 -0.02055512 3.6243423 0 0 Z " fill="#EFEFEF" transform="translate(340,234)"/>
<path d="M0 0 C1.76035639 11.90419225 1.76035639 11.90419225 -1.125 16.0625 C-2.07375 16.701875 -3.0225 17.34125 -4 18 C-4.680625 18.763125 -5.36125 19.52625 -6.0625 20.3125 C-10.68679919 22.9690123 -15.80054341 22.97266313 -21 22 C-23.45309859 19.9985699 -24.74897185 18.61920278 -25.9375 15.6875 C-26.02548033 11.9043458 -25.15551159 9.05830704 -23 6 C-16.33166525 0.17285427 -8.59337798 -1.79028708 0 0 Z M-10 5 C-11.50662097 8.01324195 -11.17770373 10.68286377 -11 14 C-10.34 14.66 -9.68 15.32 -9 16 C-6.48250172 16.14768913 -6.48250172 16.14768913 -4 15 C-0.69064536 10.32125724 -0.71538089 6.50263621 -1 1 C-5.70069146 1 -6.64348653 1.91563627 -10 5 Z " fill="#E6E6E6" transform="translate(166,252)"/>
<path d="M0 0 C-3 2 -3 2 -5.0625 2.875 C-7.57413923 4.33337116 -8.17131713 5.21261218 -9 8 C-8.68873287 11.68203915 -8.68873287 11.68203915 -8 15 C-5.55519921 14.81171228 -5.55519921 14.81171228 -3 14 C-0.78469444 11.0093375 -0.49459952 7.62706314 0 4 C1.85584844 7.13174424 2.53159412 9.36744016 2 13 C-0.62570469 17.14053432 -3.60479077 19.84235183 -8 22 C-13.38057652 22.85456215 -17.50921725 22.9353931 -22.1875 20 C-24.50680016 16.16115836 -25.0754589 13.37294032 -24 9 C-18.71928186 1.50478716 -8.71240861 -1.78208358 0 0 Z " fill="#E8E8E8" transform="translate(234,252)"/>
<path d="M0 0 C2.32039251 1.60027069 2.89969741 2.72775011 3.875 5.375 C4.0389951 8.81889713 3.05689702 10.28195751 1 13 C-2 15 -2 15 -4.9375 14.875 C-8.48899733 13.86028648 -9.88033094 13.01645212 -12 10 C-12.5 7 -12.5 7 -12 4 C-8.18516492 -0.70496326 -5.84684214 -1.43187971 0 0 Z " fill="#DFDFDF" transform="translate(351,214)"/>
<path d="M0 0 C3.39914975 1.13304992 4.05254451 2.12518475 6 5 C6.66 3.35 7.32 1.7 8 0 C8.66 0 9.32 0 10 0 C10 3.63 10 7.26 10 11 C9.01 11 8.02 11 7 11 C4.8125 8.5 4.8125 8.5 3 6 C2.67 7.65 2.34 9.3 2 11 C1.34 11 0.68 11 0 11 C0 7.37 0 3.74 0 0 Z " fill="#888888" transform="translate(334,301)"/>
<path d="M0 0 C3.33537489 1.11179163 4.63707344 2.47411298 7 5 C7.433125 4.0409375 7.433125 4.0409375 7.875 3.0625 C9 1 9 1 11 0 C11 3.63 11 7.26 11 11 C10.34 11 9.68 11 9 11 C8.67 9.68 8.34 8.36 8 7 C7.01 7.66 6.02 8.32 5 9 C4.34 8.01 3.68 7.02 3 6 C2.67 7.65 2.34 9.3 2 11 C1.34 11 0.68 11 0 11 C0 7.37 0 3.74 0 0 Z " fill="#9B9B9B" transform="translate(239,301)"/>
<path d="M0 0 C3 0.1875 3 0.1875 5 1.1875 C5 1.8475 5 2.5075 5 3.1875 C2.69 3.1875 0.38 3.1875 -2 3.1875 C-2 4.8375 -2 6.4875 -2 8.1875 C-0.35 8.5175 1.3 8.8475 3 9.1875 C3 8.5275 3 7.8675 3 7.1875 C2.01 7.1875 1.02 7.1875 0 7.1875 C0 6.5275 0 5.8675 0 5.1875 C1.65 5.1875 3.3 5.1875 5 5.1875 C5 6.8375 5 8.4875 5 10.1875 C-0.28509407 12.46969971 -0.28509407 12.46969971 -3.375 11.25 C-5.7653141 8.2161398 -5.40874575 5.93433601 -5 2.1875 C-3 0.1875 -3 0.1875 0 0 Z " fill="#8E8E8E" transform="translate(355,300.8125)"/>
<path d="M0 0 C3 0.1875 3 0.1875 5 1.1875 C5 1.8475 5 2.5075 5 3.1875 C2.69 3.1875 0.38 3.1875 -2 3.1875 C-2 4.8375 -2 6.4875 -2 8.1875 C-0.35 8.5175 1.3 8.8475 3 9.1875 C3 8.5275 3 7.8675 3 7.1875 C2.01 7.1875 1.02 7.1875 0 7.1875 C0 6.5275 0 5.8675 0 5.1875 C1.65 5.1875 3.3 5.1875 5 5.1875 C5 6.8375 5 8.4875 5 10.1875 C-0.28509407 12.46969971 -0.28509407 12.46969971 -3.375 11.25 C-5.7653141 8.2161398 -5.40874575 5.93433601 -5 2.1875 C-3 0.1875 -3 0.1875 0 0 Z " fill="#8D8D8D" transform="translate(170,300.8125)"/>
<path d="M0 0 C6.3782235 -0.36103152 6.3782235 -0.36103152 8.9375 1.125 C10.48138276 3.84949899 10.3267107 5.92891945 10 9 C8 11 8 11 6.0546875 11.1953125 C4.03645833 11.13020833 2.01822917 11.06510417 0 11 C0 7.37 0 3.74 0 0 Z M2 2 C2 4.31 2 6.62 2 9 C3.66611905 9.042721 5.33382885 9.04063832 7 9 C8.28322547 7.9404123 8.28322547 7.9404123 8.125 5.5 C8.28322547 3.0595877 8.28322547 3.0595877 7 2 C5.33382885 1.95936168 3.66611905 1.957279 2 2 Z " fill="#979797" transform="translate(140,301)"/>
<path d="M0 0 C0.66 0 1.32 0 2 0 C2.1959375 0.60328125 2.391875 1.2065625 2.59375 1.828125 C4.17860288 6.06350771 5.54588968 9.29915994 9.5625 11.625 C14.64804182 13.75919713 19.6950391 12.89716251 25 12 C25.33 12.66 25.66 13.32 26 14 C20.62297194 15.79234269 14.19545113 16.02611345 8.76171875 14.28125 C4.94276808 12.25319911 2.69005251 9.94345585 1 6 C0.3125 2.6875 0.3125 2.6875 0 0 Z " fill="#838383" transform="translate(64,259)"/>
<path d="M0 0 C3.00869381 3.76086726 3.10368724 5.730387 3 10.5 C2.731875 9.943125 2.46375 9.38625 2.1875 8.8125 C1.795625 8.049375 1.40375 7.28625 1 6.5 C0.5875 5.654375 0.175 4.80875 -0.25 3.9375 C-2.59873696 0.66604495 -4.14291193 -0.26022169 -8 -1.5 C-11.72831461 -1.53639917 -15.35829658 -1.3251219 -19 -0.5 C-19.33 0.16 -19.66 0.82 -20 1.5 C-20.99 0.84 -21.98 0.18 -23 -0.5 C-15.52417726 -5.55717421 -7.06378509 -5.88648758 0 0 Z " fill="#797979" transform="translate(91,236.5)"/>
<path d="M0 0 C-0.598125 0.28875 -1.19625 0.5775 -1.8125 0.875 C-4.19327792 2.04742026 -4.19327792 2.04742026 -7 4 C-8.093125 3.814375 -9.18625 3.62875 -10.3125 3.4375 C-14.68922376 2.91822769 -16.3621586 3.60233181 -20 6 C-21.85315257 8.04946399 -21.85315257 8.04946399 -23 10 C-23.66 9.67 -24.32 9.34 -25 9 C-22.26319136 4.26321582 -20.15634526 1.92099137 -15 0 C-9.6779837 -1.18267029 -5.31117654 -0.83860682 0 0 Z " fill="#BFBFBF" transform="translate(169,233)"/>
<path d="M0 0 C1.99954746 -0.04254356 4.00041636 -0.04080783 6 0 C7 1 7 1 7 4.9375 C6.979375 5.64777344 6.95875 6.35804688 6.9375 7.08984375 C6.86973661 9.087577 6.86973661 9.087577 8 11 C7.01 11 6.02 11 5 11 C4.34 10.01 3.68 9.02 3 8 C2.67 8.99 2.34 9.98 2 11 C1.34 11 0.68 11 0 11 C0 7.37 0 3.74 0 0 Z M2 2 C2 2.99 2 3.98 2 5 C2.99 5 3.98 5 5 5 C5 4.01 5 3.02 5 2 C4.01 2 3.02 2 2 2 Z " fill="#969696" transform="translate(271,301)"/>
<path d="M0 0 C2.31 0 4.62 0 7 0 C7 0.66 7 1.32 7 2 C5.35 2 3.7 2 2 2 C2 2.66 2 3.32 2 4 C3.32 4.33 4.64 4.66 6 5 C5.01 5.33 4.02 5.66 3 6 C3 6.99 3 7.98 3 9 C4.32 9 5.64 9 7 9 C7 9.66 7 10.32 7 11 C4.69 11 2.38 11 0 11 C0 7.37 0 3.74 0 0 Z " fill="#7E7E7E" transform="translate(298,301)"/>
<path d="M0 0 C0.66 0 1.32 0 2 0 C2.33 0.66 2.66 1.32 3 2 C3.66 1.34 4.32 0.68 5 0 C5.99 0.33 6.98 0.66 8 1 C6.68 2.65 5.36 4.3 4 6 C5.32 7.65 6.64 9.3 8 11 C4.125 10.125 4.125 10.125 3 9 C2.67 9.66 2.34 10.32 2 11 C1.34 11 0.68 11 0 11 C0 7.37 0 3.74 0 0 Z " fill="#989898" transform="translate(285,301)"/>
<path d="M0 0 C0.66 0 1.32 0 2 0 C2.50615298 1.26839526 3.00469099 2.53983102 3.5 3.8125 C3.91765625 4.87404297 3.91765625 4.87404297 4.34375 5.95703125 C5 8 5 8 5 11 C4.34 11 3.68 11 3 11 C3 10.34 3 9.68 3 9 C0.69 9.66 -1.62 10.32 -4 11 C-3.5247412 9.35303396 -3.04468109 7.70745272 -2.5625 6.0625 C-2.29566406 5.14597656 -2.02882813 4.22945313 -1.75390625 3.28515625 C-1 1 -1 1 0 0 Z M0 4 C0 4.99 0 5.98 0 7 C0.66 6.67 1.32 6.34 2 6 C1.34 5.34 0.68 4.68 0 4 Z " fill="#9B9B9B" transform="translate(260,301)"/>
<path d="M0 0 C0.66 0 1.32 0 2 0 C3.32 3.63 4.64 7.26 6 11 C5.01 11 4.02 11 3 11 C3 10.34 3 9.68 3 9 C1.68 9 0.36 9 -1 9 C-1 9.66 -1 10.32 -1 11 C-1.99 10.67 -2.98 10.34 -4 10 C-2.68 6.7 -1.36 3.4 0 0 Z M0 5 C0 5.66 0 6.32 0 7 C0.66 7 1.32 7 2 7 C2 6.34 2 5.68 2 5 C1.34 5 0.68 5 0 5 Z " fill="#959595" transform="translate(207,301)"/>
<path d="M0 0 C0.33 0 0.66 0 1 0 C1.33 3.3 1.66 6.6 2 10 C3.98 8.35 5.96 6.7 8 5 C8.66 5.33 9.32 5.66 10 6 C10 6.99 10 7.98 10 9 C8.576875 9.556875 8.576875 9.556875 7.125 10.125 C3.74446192 11.73995905 3.74446192 11.73995905 2.625 15.1875 C2.41875 16.115625 2.2125 17.04375 2 18 C0 16 0 16 -0.1953125 12.3046875 C-0.182009 10.82799892 -0.15814835 9.35137642 -0.125 7.875 C-0.11146484 6.74384766 -0.11146484 6.74384766 -0.09765625 5.58984375 C-0.0740687 3.72642746 -0.03819719 1.86317407 0 0 Z " fill="#AFAFAF" transform="translate(112,229)"/>
<path d="M0 0 C4.27419392 4.02995427 5.07578167 8.41820774 6 14 C5.34 14 4.68 14 4 14 C3.84144531 13.39671875 3.68289063 12.7934375 3.51953125 12.171875 C2.38791494 8.29562024 1.48284034 5.53648927 -1.25 2.5 C-4.52388805 0.71424288 -7.30380797 0.28989741 -11 0 C-11 -0.33 -11 -0.66 -11 -1 C-6.61912129 -2.018809 -3.95065776 -2.28722291 0 0 Z " fill="#696969" transform="translate(390,236)"/>
<path d="M0 0 C0.66 0 1.32 0 2 0 C2 2.97 2 5.94 2 9 C3.32 9.33 4.64 9.66 6 10 C6 10.33 6 10.66 6 11 C3.69 11 1.38 11 -1 11 C-1.02688151 9.35425434 -1.04634123 7.70838587 -1.0625 6.0625 C-1.07410156 5.14597656 -1.08570313 4.22945313 -1.09765625 3.28515625 C-1 1 -1 1 0 0 Z " fill="#717171" transform="translate(219,301)"/>
<path d="M0 0 C2.31 0.33 4.62 0.66 7 1 C7.30341425 3.0788382 7.5666325 5.163573 7.8125 7.25 C8.03873047 8.99023438 8.03873047 8.99023438 8.26953125 10.765625 C8 14 8 14 5.51171875 16.421875 C4.68285156 16.94265625 3.85398438 17.4634375 3 18 C2.34 17.34 1.68 16.68 1 16 C1.47050781 15.62230469 1.94101563 15.24460937 2.42578125 14.85546875 C4.49679029 12.41445314 4.70686716 10.45509934 5.1875 7.3125 C5.34605469 6.31863281 5.50460938 5.32476562 5.66796875 4.30078125 C5.77753906 3.54152344 5.88710937 2.78226563 6 2 C3.03 1.505 3.03 1.505 0 1 C0 0.67 0 0.34 0 0 Z " fill="#808080" transform="translate(159,251)"/>
<path d="M0 0 C0 0.66 0 1.32 0 2 C-0.60328125 2.14695313 -1.2065625 2.29390625 -1.828125 2.4453125 C-7.65245508 4.07988255 -9.92839563 5.56562303 -13 11 C-13.99 11.33 -14.98 11.66 -16 12 C-14.60090802 7.54834369 -12.52592921 5.03393909 -9 2 C-5.58160951 0.24911706 -3.93615981 0 0 0 Z " fill="#727272" transform="translate(212,233)"/>
<path d="M0 0 C0.99 0.33 1.98 0.66 3 1 C-1.64172645 5.90282356 -6.49280079 10.09489511 -12 14 C-12.66 13.67 -13.32 13.34 -14 13 C-13.07316406 12.14535156 -12.14632813 11.29070312 -11.19140625 10.41015625 C-9.98176077 9.29428174 -8.7721259 8.17839573 -7.5625 7.0625 C-6.64500977 6.21655273 -6.64500977 6.21655273 -5.70898438 5.35351562 C-5.12568359 4.81533203 -4.54238281 4.27714844 -3.94140625 3.72265625 C-3.40201416 3.22515869 -2.86262207 2.72766113 -2.30688477 2.21508789 C-1.52614632 1.48918929 -0.75381738 0.75381738 0 0 Z " fill="#818181" transform="translate(429,234)"/>
<path d="M0 0 C2.97 0 5.94 0 9 0 C9 0.66 9 1.32 9 2 C8.01 2 7.02 2 6 2 C6 4.97 6 7.94 6 11 C5.34 11 4.68 11 4 11 C4 8.03 4 5.06 4 2 C2.68 2 1.36 2 0 2 C0 1.34 0 0.68 0 0 Z " fill="#949494" transform="translate(310,301)"/>
<path d="M0 0 C2.97 0 5.94 0 9 0 C9 0.66 9 1.32 9 2 C8.01 2 7.02 2 6 2 C6 4.97 6 7.94 6 11 C5.34 11 4.68 11 4 11 C4 8.03 4 5.06 4 2 C2.68 2 1.36 2 0 2 C0 1.34 0 0.68 0 0 Z " fill="#959595" transform="translate(189,301)"/>
<path d="M0 0 C0 0.66 0 1.32 0 2 C-0.60328125 2.15855469 -1.2065625 2.31710938 -1.828125 2.48046875 C-7.02442785 3.99745394 -10.0177437 5.20245726 -13 10 C-13.66 9.67 -14.32 9.34 -15 9 C-11.38315709 2.74007957 -7.49630603 -0.66143877 0 0 Z " fill="#878787" transform="translate(228,233)"/>
<path d="M0 0 C-2.34040526 1.17020263 -4.67399299 2.3026091 -7.0625 3.375 C-9.97426679 4.9857646 -11.27004132 6.21284434 -13 9 C-13.66 8.67 -14.32 8.34 -15 8 C-11.43124296 1.82330512 -7.44381956 -2.40829456 0 0 Z " fill="#888888" transform="translate(298,234)"/>
<path d="M0 0 C0.99 0 1.98 0 3 0 C3 3.63 3 7.26 3 11 C2.01 11 1.02 11 0 11 C0 7.37 0 3.74 0 0 Z " fill="#626262" transform="translate(181,301)"/>
<path d="M0 0 C0.66 0 1.32 0 2 0 C2 3.63 2 7.26 2 11 C1.01 11 0.02 11 -1 11 C-1.02688151 9.35425434 -1.04634123 7.70838587 -1.0625 6.0625 C-1.07410156 5.14597656 -1.08570313 4.22945313 -1.09765625 3.28515625 C-1 1 -1 1 0 0 Z " fill="#616161" transform="translate(157,301)"/>
<path d="M0 0 C0.66 0 1.32 0 2 0 C1.66290194 6.51722911 0.55774263 9.32539218 -4 14 C-4.99 13.34 -5.98 12.68 -7 12 C-6.21625 11.505 -5.4325 11.01 -4.625 10.5 C-1.09968551 7.14255763 -0.86663179 4.72708251 0 0 Z " fill="#707070" transform="translate(394,257)"/>
<path d="M0 0 C1.85584844 3.13174424 2.53159412 5.36744016 2 9 C0.19337585 11.64971542 -1.11241058 13.55620529 -4 15 C-4.33 14.01 -4.66 13.02 -5 12 C-3.66666667 10 -2.33333333 8 -1 6 C-0.20929452 2.76961158 -0.20929452 2.76961158 0 0 Z " fill="#8C8C8C" transform="translate(234,256)"/>
<path d="M0 0 C0.66 0 1.32 0 2 0 C2.25394531 0.61488281 2.50789063 1.22976563 2.76953125 1.86328125 C3.11371094 2.67152344 3.45789063 3.47976563 3.8125 4.3125 C4.14894531 5.11300781 4.48539062 5.91351563 4.83203125 6.73828125 C5.98200704 8.96515745 7.13626961 10.34987767 9 12 C8.01 12.495 8.01 12.495 7 13 C2.18602057 8.94612259 1.11458074 5.9782058 0 0 Z " fill="#7A7A7A" transform="translate(64,259)"/>
<path d="M0 0 C0 0.33 0 0.66 0 1 C-1.28197266 1.18175781 -1.28197266 1.18175781 -2.58984375 1.3671875 C-3.69457031 1.53476563 -4.79929687 1.70234375 -5.9375 1.875 C-7.03964844 2.03742188 -8.14179687 2.19984375 -9.27734375 2.3671875 C-10.17582031 2.57601562 -11.07429688 2.78484375 -12 3 C-12.33 3.66 -12.66 4.32 -13 5 C-13.99 4.34 -14.98 3.68 -16 3 C-10.69725092 -0.58715379 -6.23656387 -1.65085514 0 0 Z " fill="#8C8C8C" transform="translate(84,233)"/>
<path d="M0 0 C1.65 0 3.3 0 5 0 C5 1.65 5 3.3 5 5 C3.02 5.66 1.04 6.32 -1 7 C-1.33 6.34 -1.66 5.68 -2 5 C-0.35 4.67 1.3 4.34 3 4 C3 3.34 3 2.68 3 2 C2.01 2 1.02 2 0 2 C0 1.34 0 0.68 0 0 Z " fill="#949494" transform="translate(170,306)"/>
<path d="M0 0 C1.32 0.66 2.64 1.32 4 2 C3.071875 2.4125 2.14375 2.825 1.1875 3.25 C-1.88054681 4.93441786 -3.19040465 6.08454083 -5 9 C-5.66 8.67 -6.32 8.34 -7 8 C-3.375 2.25 -3.375 2.25 0 0 Z " fill="#717171" transform="translate(151,234)"/>
<path d="M0 0 C0.33 0 0.66 0 1 0 C1.06058594 0.83144531 1.12117188 1.66289062 1.18359375 2.51953125 C1.26738281 3.60621094 1.35117188 4.69289062 1.4375 5.8125 C1.51871094 6.89144531 1.59992188 7.97039062 1.68359375 9.08203125 C1.90212461 12.05989905 1.90212461 12.05989905 3 15 C2.34 15.99 1.68 16.98 1 18 C-0.59412284 14.81175432 -0.10174735 11.37103338 -0.0625 7.875 C-0.05798828 7.12089844 -0.05347656 6.36679688 -0.04882812 5.58984375 C-0.03703499 3.72652873 -0.01909942 1.86325445 0 0 Z " fill="#666666" transform="translate(112,229)"/>
<path d="M0 0 C0.99 1.485 0.99 1.485 2 3 C1.67 3.99 1.34 4.98 1 6 C0.29875 5.195625 -0.4025 4.39125 -1.125 3.5625 C-4.26291593 0.76566189 -5.88758763 0.28691249 -10 0 C-10 -0.33 -10 -0.66 -10 -1 C-5.96901069 -2.15171123 -3.70658609 -2.00356005 0 0 Z " fill="#797979" transform="translate(285,214)"/>
<path d="M0 0 C0.66 0 1.32 0 2 0 C3.1004671 3.98919325 3.1004671 7.01080675 2 11 C1.34 11 0.68 11 0 11 C0 7.37 0 3.74 0 0 Z " fill="#8E8E8E" transform="translate(285,301)"/>
<path d="M0 0 C0.66 0 1.32 0 2 0 C2 3.63 2 7.26 2 11 C1.34 11 0.68 11 0 11 C0 7.37 0 3.74 0 0 Z " fill="#979797" transform="translate(325,301)"/>
<path d="M0 0 C-2.31856917 1.54571278 -4.50638429 2.79618552 -7 4 C-7.66 2.68 -8.32 1.36 -9 0 C-5.67465243 -1.10844919 -3.37817425 -0.84454356 0 0 Z " fill="#B0B0B0" transform="translate(303,252)"/>
<path d="M0 0 C0.66 0 1.32 0 2 0 C2.33 1.65 2.66 3.3 3 5 C1.02 5.99 1.02 5.99 -1 7 C-2 4 -2 4 -1.0625 1.8125 C-0.5365625 0.9153125 -0.5365625 0.9153125 0 0 Z " fill="#8B8B8B" transform="translate(260,301)"/>
<path d="M0 0 C0.99 0.33 1.98 0.66 3 1 C1.88820837 4.33537489 0.52588702 5.63707344 -2 8 C-2.66 7.34 -3.32 6.68 -4 6 C-3.525625 5.566875 -3.05125 5.13375 -2.5625 4.6875 C-0.76313043 2.97690387 -0.76313043 2.97690387 0 0 Z " fill="#8F8F8F" transform="translate(303,261)"/>
<path d="M0 0 C-3 2 -3 2 -6 3 C-6 2.34 -6 1.68 -6 1 C-7.32 0.67 -8.64 0.34 -10 0 C-6.42355152 -1.2380014 -3.66305234 -0.74926071 0 0 Z " fill="#888888" transform="translate(234,252)"/>
<path d="M0 0 C0.66 0.33 1.32 0.66 2 1 C-0.31 3.31 -2.62 5.62 -5 8 C-5 5 -5 5 -2.5 2.3125 C-1.675 1.549375 -0.85 0.78625 0 0 Z " fill="#BABABA" transform="translate(264,213)"/>
</svg>
